<svg width="53" height="67" viewBox="0 0 53 67" fill="none" xmlns="http://www.w3.org/2000/svg">
<path d="M13.042 32.9667L20.9123 37.5106C21.2113 37.6832 21.3137 38.0654 21.1411 38.3644L16.0054 47.2597C15.5304 48.0825 15.8121 49.1339 16.6348 49.6089C17.4575 50.0838 18.509 49.8022 18.984 48.9795L24.1198 40.0841C24.2924 39.7852 24.6746 39.6827 24.9735 39.8553L32.8676 44.413C33.0832 44.5374 33.1572 44.8133 33.0327 45.0293L32.4306 46.0721C27.9441 53.843 19.9071 58.9008 10.9602 59.5881C10.639 59.6127 10.337 59.4322 10.2062 59.1381C6.70095 51.2502 7.18002 42.1609 11.4959 34.6856L12.387 33.1422L12.4438 33.0633C12.5706 32.9205 12.7721 32.8665 12.9534 32.9268L13.042 32.9667Z" stroke="#F5F5F5" stroke-width="0.75" stroke-linejoin="round"/>
<rect x="34.0967" y="17.4228" width="1.94022" height="21.6471" rx="0.970108" transform="rotate(30 34.0967 17.4228)" stroke="#F5F5F5" stroke-width="0.75" stroke-linejoin="round"/>
<path d="M32.0815 0.670951C36.8663 3.43354 38.5051 9.55241 35.7427 14.3374L35.4673 14.8144L34.4763 7.3219C34.4186 6.88535 34.019 6.57513 33.5796 6.6328C33.1685 6.6871 32.8713 7.04451 32.8835 7.44987L32.8904 7.53166L33.9108 15.2643C29.4378 12.4186 28.2418 6.68709 30.94 2.01343L31.648 0.787121L31.6856 0.735567C31.7696 0.640786 31.903 0.605056 32.0231 0.645133L32.0815 0.670951Z" stroke="#F5F5F5" stroke-width="0.75" stroke-linejoin="round"/>
<path d="M51.4447 11.8503C46.6598 9.08783 40.5413 10.728 37.7786 15.5128L37.5032 15.9898L44.4874 13.1018C44.8943 12.9335 45.3627 13.1244 45.5325 13.5338C45.691 13.917 45.5301 14.353 45.173 14.5452L45.0987 14.5801L37.8918 17.5628C42.5928 20.0137 48.1544 18.1836 50.8528 13.5101L51.5608 12.2838L51.5866 12.2254C51.6267 12.1053 51.591 11.9719 51.4962 11.8879L51.4447 11.8503Z" stroke="#F5F5F5" stroke-width="0.75" stroke-linejoin="round"/>
</svg>
