<svg width="20" height="25" viewBox="0 0 20 25" fill="none" xmlns="http://www.w3.org/2000/svg">
<path d="M12.6571 16.6663C12.8084 16.7525 12.8602 16.9436 12.7729 17.0929L12.5423 17.4871C10.8007 20.4652 7.68081 22.4036 4.20776 22.667C4.02424 22.6809 3.85149 22.5793 3.77673 22.4132C2.41583 19.39 2.60196 15.9062 4.27752 13.0411L4.61874 12.4576C4.70906 12.3032 4.90924 12.2502 5.06569 12.3394L7.54214 13.7509C8.02195 14.0244 8.1849 14.6326 7.9061 15.1093L6.25295 17.9361C6.11072 18.1793 6.19507 18.4901 6.44142 18.6305C6.68776 18.7709 7.00257 18.6876 7.14479 18.4444L8.79794 15.6176C9.07675 15.1409 9.69173 14.9761 10.1716 15.2496L12.6571 16.6663Z" fill="#F5F5F5"/>
<rect width="1.02684" height="8.4941" rx="0.513418" transform="matrix(0.868784 0.495192 -0.504824 0.863222 13.0034 6.39255)" fill="#F5F5F5"/>
<path d="M12.3561 0.130885C14.257 1.21438 14.9081 3.61428 13.8106 5.49092L13.6331 5.79447C13.578 5.88856 13.4709 5.86341 13.4566 5.75593L13.0591 2.78643C13.0473 2.69841 12.9657 2.63622 12.8766 2.64778C12.7874 2.65941 12.7245 2.74048 12.7363 2.82853L13.1368 5.82342C13.1488 5.91267 13.051 5.9783 12.9734 5.93165C11.1359 4.82665 10.6413 2.53956 11.7229 0.690115L11.9939 0.226699C12.0671 0.101594 12.2294 0.0586538 12.3561 0.130885Z" fill="#F5F5F5"/>
<path d="M19.7704 4.35688C17.8695 3.27343 15.4387 3.91673 14.3412 5.79337L14.1637 6.09691C14.1087 6.19106 14.1843 6.27 14.2858 6.22856L17.0894 5.08364C17.1725 5.0497 17.2678 5.08834 17.3023 5.17034C17.3367 5.25242 17.297 5.3467 17.2138 5.38066L14.3864 6.53567C14.3022 6.57009 14.2935 6.68651 14.3732 6.72951C16.2613 7.74806 18.5148 7.02732 19.5964 5.17788L19.8674 4.71446C19.9406 4.58935 19.8971 4.42911 19.7704 4.35688Z" fill="#F5F5F5"/>
</svg>
