<svg width="53" height="67" viewBox="0 0 53 67" fill="none" xmlns="http://www.w3.org/2000/svg">
<path d="M33.0551 44.0882C33.4502 44.3163 33.5854 44.8216 33.3575 45.2168L32.7554 46.2596C28.207 54.1377 20.0591 59.2654 10.9889 59.9621C10.5097 59.9989 10.0585 59.73 9.86325 59.2908C6.30915 51.2932 6.79525 42.0774 11.1711 34.4981L12.0622 32.9547C12.2981 32.5461 12.8209 32.4062 13.2295 32.6419L21.0998 37.1859C21.5781 37.462 21.742 38.0736 21.4659 38.5519L16.3301 47.4472C15.9587 48.0906 16.179 48.9127 16.8223 49.2842C17.4657 49.6555 18.2878 49.4353 18.6593 48.792L23.795 39.8966C24.0711 39.4183 24.6827 39.2544 25.161 39.5306L33.0551 44.0882Z" fill="#F5F5F5"/>
<rect x="33.9594" y="16.9106" width="2.69022" height="22.3971" rx="1.34511" transform="rotate(30 33.9594 16.9106)" fill="#F5F5F5"/>
<path d="M32.2691 0.346236C37.2334 3.21247 38.9337 9.56104 36.0676 14.5254L35.604 15.3284C35.4606 15.5765 35.1803 15.5089 35.1428 15.2248L34.1049 7.37108C34.0742 7.13824 33.8612 6.97371 33.6283 7.0043C33.3954 7.03507 33.2312 7.24952 33.262 7.48245L34.3083 15.4073C34.3394 15.643 34.0842 15.8149 33.8812 15.6913C29.0822 12.7682 27.7908 6.71801 30.6154 1.82559L31.3232 0.599698C31.5143 0.268752 31.9381 0.15516 32.2691 0.346236Z" fill="#F5F5F5"/>
<path d="M51.6321 11.5254C46.6677 8.65935 40.3195 10.3611 37.4533 15.3254L36.9897 16.1284C36.8466 16.3767 37.0452 16.5856 37.31 16.4761L44.6305 13.448C44.8475 13.3582 45.0965 13.4604 45.1864 13.6773C45.2762 13.8944 45.1726 14.1439 44.9555 14.2337L37.5692 17.29C37.3496 17.3809 37.3282 17.6879 37.5369 17.8019C42.4678 20.4963 48.3531 18.5897 51.1778 13.6973L51.8855 12.4714C52.0766 12.1404 51.963 11.7165 51.6321 11.5254Z" fill="#F5F5F5"/>
</svg>
