<svg width="14" height="16" viewBox="0 0 14 16" fill="none" xmlns="http://www.w3.org/2000/svg">
<path d="M12.3896 6.27881C12.3896 10.579 6.5698 14.2649 6.5698 14.2649C6.5698 14.2649 0.75 10.579 0.75 6.27881C0.75 4.81248 1.36316 3.4062 2.45458 2.36935C3.546 1.3325 5.02629 0.75 6.5698 0.75C8.11331 0.75 9.5936 1.3325 10.685 2.36935C11.7764 3.4062 12.3896 4.81248 12.3896 6.27881Z" stroke="#052107" stroke-width="1.5" stroke-linecap="round" stroke-linejoin="round"/>
<path d="M6.5698 8.12175C7.6412 8.12175 8.50974 7.29664 8.50974 6.27881C8.50974 5.26098 7.6412 4.43587 6.5698 4.43587C5.49841 4.43587 4.62987 5.26098 4.62987 6.27881C4.62987 7.29664 5.49841 8.12175 6.5698 8.12175Z" stroke="#052107" stroke-width="1.5" stroke-linecap="round" stroke-linejoin="round"/>
</svg>
